# xmcd
#
# Track frame offsets: 
#        150
#        27760
#        57721
#        104119
#        128880
#        157188
#        182336
#        198334
#        224347
#        259026
#        283479
#        305557
#
# Disc length: 4443 seconds
#
# Revision: 3
# Processed by: cddbd v1.5.2PL0 Copyright (c) Steve Scherf et al.
# Submitted via: ExactAudioCopy v1.0b3
#
DISCID=be11590c
DTITLE=ua x 菊地成孔 - cure jazz
DYEAR=2006
DGENRE=Jazz
TTITLE0=Born to be blue
TTITLE1=Night in Tunisia
TTITLE2=Over the rainbow
TTITLE3=Music on the planet where dawn never breaks
TTITLE4=Ordinary fool
TTITLE5=嘆息的泡
TTITLE6=This city is too jazzy to be in love
TTITLE7=Luiza
TTITLE8=Honeys and scorpions
TTITLE9=Hymn of lambarene
TTITLE10=I'll be seeing you
TTITLE11=Nature d'eau
EXTD=YEAR: 2006
EXTT0=
EXTT1=
EXTT2=
EXTT3=
EXTT4=
EXTT5=
EXTT6=
EXTT7=
EXTT8=
EXTT9=
EXTT10=
EXTT11=
PLAYORDER=
